<svg width="74" height="74" viewBox="0 0 74 74" fill="none" xmlns="http://www.w3.org/2000/svg">
<rect width="74" height="74" rx="5" fill="#2C2F37"/>
<path d="M15.1417 18.1453C13.385 19.902 13.385 22.7501 15.1417 24.5067L27.2283 36.5934L15.1417 48.6801C13.385 50.4367 13.385 53.2848 15.1417 55.0415L18.9585 58.8583C20.7151 60.615 23.5632 60.615 25.3199 58.8583L37.4066 46.7717L49.4933 58.8583C51.2499 60.615 54.098 60.615 55.8547 58.8583L59.6715 55.0415C61.4282 53.2848 61.4282 50.4367 59.6715 48.6801L47.5849 36.5934L59.6715 24.5067C61.4282 22.7501 61.4282 19.902 59.6715 18.1453L55.8547 14.3285C54.098 12.5718 51.2499 12.5718 49.4933 14.3285L37.4066 26.4152L25.3199 14.3285C23.5632 12.5718 20.7152 12.5718 18.9585 14.3285L15.1417 18.1453Z" fill="white"/>
</svg>
