<svg width="354" height="354" viewBox="0 0 354 354" fill="none" xmlns="http://www.w3.org/2000/svg">
<rect width="354" height="354" fill="#1A1E21"/>
<rect x="20" y="20" width="91" height="91" rx="5" fill="#22242B"/>
<path d="M38.6201 42.3139C36.46 44.4741 36.46 47.9765 38.6201 50.1367L53.4835 65L38.6201 79.8633C36.46 82.0236 36.46 85.526 38.6201 87.6862L43.3138 92.3798C45.474 94.5401 48.9764 94.5401 51.1367 92.3798L66 77.5165L80.8633 92.3798C83.0235 94.5401 86.5259 94.5401 88.6862 92.3798L93.3799 87.6862C95.5401 85.526 95.5401 82.0236 93.3799 79.8633L78.5165 65L93.3798 50.1367C95.5401 47.9765 95.5401 44.4741 93.3798 42.3139L88.6861 37.6202C86.5259 35.46 83.0235 35.46 80.8633 37.6202L66 52.4835L51.1367 37.6202C48.9764 35.4599 45.4741 35.4599 43.3138 37.6202L38.6201 42.3139Z" fill="white"/>
<rect x="131" y="20" width="91" height="91" rx="5" fill="#22242B"/>
<path d="M149.62 42.3139C147.46 44.4741 147.46 47.9765 149.62 50.1367L164.483 65L149.62 79.8633C147.46 82.0236 147.46 85.526 149.62 87.6862L154.314 92.3798C156.474 94.5401 159.976 94.5401 162.137 92.3798L177 77.5165L191.863 92.3798C194.024 94.5401 197.526 94.5401 199.686 92.3798L204.38 87.6862C206.54 85.526 206.54 82.0236 204.38 79.8633L189.517 65L204.38 50.1367C206.54 47.9765 206.54 44.4741 204.38 42.3139L199.686 37.6202C197.526 35.46 194.024 35.46 191.863 37.6202L177 52.4835L162.137 37.6202C159.976 35.4599 156.474 35.4599 154.314 37.6202L149.62 42.3139Z" fill="white"/>
<rect x="242" y="20" width="91" height="91" rx="5" fill="#22242B"/>
<rect x="20" y="131" width="91" height="91" rx="5" fill="#22242B"/>
<rect x="131" y="131" width="91" height="91" rx="5" fill="#22242B"/>
<path fill-rule="evenodd" clip-rule="evenodd" d="M176 205C192.016 205 205 192.016 205 176C205 159.984 192.016 147 176 147C159.984 147 147 159.984 147 176C147 192.016 159.984 205 176 205ZM176 186C181.523 186 186 181.523 186 176C186 170.477 181.523 166 176 166C170.477 166 166 170.477 166 176C166 181.523 170.477 186 176 186Z" fill="#FFA500"/>
<rect x="242" y="131" width="91" height="91" rx="5" fill="#22242B"/>
<path fill-rule="evenodd" clip-rule="evenodd" d="M287 205C303.016 205 316 192.016 316 176C316 159.984 303.016 147 287 147C270.984 147 258 159.984 258 176C258 192.016 270.984 205 287 205ZM287 186C292.523 186 297 181.523 297 176C297 170.477 292.523 166 287 166C281.477 166 277 170.477 277 176C277 181.523 281.477 186 287 186Z" fill="#FFA500"/>
<rect x="20" y="242" width="91" height="91" rx="5" fill="#22242B"/>
<rect x="131" y="242" width="91" height="91" rx="5" fill="#22242B"/>
<path fill-rule="evenodd" clip-rule="evenodd" d="M176 316C192.016 316 205 303.016 205 287C205 270.984 192.016 258 176 258C159.984 258 147 270.984 147 287C147 303.016 159.984 316 176 316ZM176 297C181.523 297 186 292.523 186 287C186 281.477 181.523 277 176 277C170.477 277 166 281.477 166 287C166 292.523 170.477 297 176 297Z" fill="#FFA500"/>
<rect x="242" y="242" width="91" height="91" rx="5" fill="#22242B"/>
<path d="M260.62 264.314C258.46 266.474 258.46 269.976 260.62 272.137L275.483 287L260.62 301.863C258.46 304.024 258.46 307.526 260.62 309.686L265.314 314.38C267.474 316.54 270.976 316.54 273.137 314.38L288 299.517L302.863 314.38C305.024 316.54 308.526 316.54 310.686 314.38L315.38 309.686C317.54 307.526 317.54 304.024 315.38 301.863L300.517 287L315.38 272.137C317.54 269.976 317.54 266.474 315.38 264.314L310.686 259.62C308.526 257.46 305.024 257.46 302.863 259.62L288 274.484L273.137 259.62C270.976 257.46 267.474 257.46 265.314 259.62L260.62 264.314Z" fill="white"/>
</svg>
